<?xml version="1.0" standalone="no"?>
<!DOCTYPE svg PUBLIC "-//W3C//DTD SVG 20010904//EN"
 "http://www.w3.org/TR/2001/REC-SVG-20010904/DTD/svg10.dtd">
<svg version="1.0" xmlns="http://www.w3.org/2000/svg"
 width="32.000000pt" height="32.000000pt" viewBox="0 0 32.000000 32.000000"
 preserveAspectRatio="xMidYMid meet">

<g transform="translate(0.000000,32.000000) scale(0.100000,-0.100000)"
fill="#000000" stroke="none">
<path d="M12 308 c-17 -17 -17 -279 0 -296 17 -17 279 -17 296 0 17 17 17 279
0 296 -17 17 -279 17 -296 0z m218 -58 c0 -5 -4 -10 -10 -10 -6 0 -10 -29 -10
-68 0 -80 -17 -112 -60 -112 -43 0 -60 10 -60 35 0 30 30 42 37 15 3 -13 12
-20 22 -18 12 3 17 18 19 71 2 42 -1 67 -8 67 -5 0 -10 7 -10 15 0 11 11 15
40 15 22 0 40 -4 40 -10z"/>
</g>
</svg>
